<?xml version="1.0" encoding="utf-8"?>
<!-- Generator: Adobe Illustrator 21.0.1, SVG Export Plug-In . SVG Version: 6.00 Build 0)  -->
<svg version="1.1" id="Layer_1" xmlns="http://www.w3.org/2000/svg" xmlns:xlink="http://www.w3.org/1999/xlink" x="0px" y="0px"
	 viewBox="0 0 73 36.2" style="enable-background:new 0 0 73 36.2;" xml:space="preserve">
<style type="text/css">
	.st0{fill:#ED1C24;stroke:#000000;stroke-width:0.5;stroke-miterlimit:10;}
	.st1{fill:#ED1C24;}
	.st2{font-family:'Phosphate-Inline';}
	.st3{font-size:9.538px;}
	.st4{font-size:10.4876px;}
	.st5{font-size:12.8459px;}
</style>
<path class="st0" d="M25.7,32.9H7.9c-4,0-7.3-3.3-7.3-7.3v-2.5c0-4,3.3-7.3,7.3-7.3h17.8c4,0,7.3,3.3,7.3,7.3v2.5
	C33,29.6,29.7,32.9,25.7,32.9z"/>
<circle class="st0" cx="9" cy="10.4" r="5.8"/>
<ellipse class="st0" cx="24.9" cy="8.6" rx="7.3" ry="7.7"/>
<polygon class="st0" points="41.8,17.6 33,23.1 33,26.6 41.8,32.1 "/>
<path class="st0" d="M18.2,17.5H15c-1.6,0-2.9-1.3-2.9-2.9l0,0c0-1.6,1.3-2.9,2.9-2.9h3.2c1.6,0,2.9,1.3,2.9,2.9l0,0
	C21.1,16.2,19.8,17.5,18.2,17.5z"/>
<path class="st0" d="M26.4,34.9H7.7c-0.5,0-1-0.4-1-1l0,0c0-0.5,0.4-1,1-1h18.6c0.5,0,1,0.4,1,1l0,0C27.4,34.4,26.9,34.9,26.4,34.9z
	"/>
<circle class="st0" cx="9" cy="10.4" r="2.6"/>
<circle class="st0" cx="25" cy="8.5" r="3.9"/>
<text transform="matrix(0.9315 0 0 1 42.7441 32.2627)" class="st1 st2 st3">search</text>
<text transform="matrix(0.9642 0 0 1 42.7437 24.3662)" class="st1 st2 st4">Movie</text>
<text transform="matrix(0.9686 0 0 1 2.9941 28.354)" class="st2 st5">IMDB</text>
</svg>
