<?xml version="1.0" encoding="utf-8"?>
<!-- Generator: Adobe Illustrator 21.0.1, SVG Export Plug-In . SVG Version: 6.00 Build 0)  -->
<svg version="1.1" id="Layer_1" xmlns="http://www.w3.org/2000/svg" xmlns:xlink="http://www.w3.org/1999/xlink" x="0px" y="0px"
	 viewBox="0 0 500 333" style="enable-background:new 0 0 500 333;" xml:space="preserve">
<style type="text/css">
	.st0{fill:#020202;stroke:#000000;stroke-width:0.5;stroke-miterlimit:10;}
	.st1{fill:#ED1C24;stroke:#000000;stroke-width:0.5;stroke-miterlimit:10;}
	.st2{fill:none;}
	.st3{fill:#ED1C24;}
	.st4{font-family:'Phosphate-Inline';}
	.st5{font-size:60.2671px;}
	.st6{font-size:66.2673px;}
	.st7{font-size:81.1685px;}
</style>
<rect class="st0" width="500" height="333"/>
<path class="st1" d="M181.4,248.2H68.8c-25.3,0-46.2-20.9-46.2-46.1v-15.8c0-25.3,20.9-46.1,46.2-46.1h112.6
	c25.3,0,46.2,20.9,46.2,46.1v15.8C227.6,227.3,206.7,248.2,181.4,248.2z"/>
<ellipse class="st1" cx="75.7" cy="106" rx="36.7" ry="36.6"/>
<ellipse class="st1" cx="176.3" cy="94.7" rx="46.2" ry="48.7"/>
<polygon class="st1" points="283.2,151.5 227.6,186.3 227.6,208.4 283.2,243.1 "/>
<path class="st1" d="M133.9,150.9h-20.2c-10.1,0-18.3-8.2-18.3-18.3l0,0c0-10.1,8.2-18.3,18.3-18.3h20.2c10.1,0,18.3,8.2,18.3,18.3
	l0,0C152.3,142.7,144.1,150.9,133.9,150.9z"/>
<path class="st1" d="M183.2,260.8H65c-3.2,0-6.3-2.5-6.3-6.3l0,0c0-3.2,2.5-6.3,6.3-6.3h117.7c3.2,0,6.3,2.5,6.3,6.3l0,0
	C189.6,257.7,186.4,260.8,183.2,260.8z"/>
<ellipse class="st1" cx="75.7" cy="106" rx="16.4" ry="16.4"/>
<ellipse class="st1" cx="176.9" cy="94" rx="24.7" ry="24.6"/>
<rect x="289.2" y="192.9" class="st2" width="188.2" height="66.7"/>
<text transform="matrix(0.9325 0 0 1 289.1831 243.1456)" class="st3 st4 st5">search</text>
<rect x="289.2" y="139" class="st2" width="186.6" height="73.4"/>
<text transform="matrix(0.9652 0 0 1 289.1826 194.2769)" class="st3 st4 st6">Movie</text>
<rect x="37.8" y="151.8" class="st2" width="177.9" height="89.9"/>
<text transform="matrix(0.9696 0 0 1 37.7544 219.4757)" class="st4 st7">IMDB</text>
</svg>
