<?xml version="1.0" encoding="utf-8"?>
<!-- Generator: Adobe Illustrator 21.0.1, SVG Export Plug-In . SVG Version: 6.00 Build 0)  -->
<svg version="1.1" id="Layer_1" xmlns="http://www.w3.org/2000/svg" xmlns:xlink="http://www.w3.org/1999/xlink" x="0px" y="0px"
	 viewBox="0 0 476 48.5" style="enable-background:new 0 0 476 48.5;" xml:space="preserve">
<style type="text/css">
	.st0{fill:none;}
	.st1{fill:#ED1C24;}
	.st2{font-family:'Phosphate-Inline';}
	.st3{font-size:41.6501px;}
	.st4{fill:#F9F9F9;stroke:#000000;stroke-width:0.5;stroke-miterlimit:10;}
	.st5{fill:#FFFFFF;stroke:#070000;stroke-miterlimit:10;}
</style>
<rect x="6.9" y="5.6" class="st0" width="337" height="39.4"/>
<text transform="matrix(1.1357 0 0 1 6.8545 33.4253)" class="st1 st2 st3">jose’s movie reviews</text>
<g>
	<line class="st0" x1="11.6" y1="41.1" x2="469.4" y2="41.1"/>
	<g>
		<path class="st1" d="M11.6,45.7c51.6,0,103.2,0,154.7,0c82.1,0,164.4,0,246.6,0c18.8,0,37.6,0,56.4,0c8.9,0,8.9-9.2,0-9.2
			c-51.6,0-103.2,0-154.7,0c-82.1,0-164.4,0-246.6,0c-18.8,0-37.6,0-56.4,0C2.8,36.5,2.8,45.7,11.6,45.7L11.6,45.7z"/>
	</g>
</g>
<path class="st4" d="M337.7,46.5"/>
<line class="st5" x1="12.9" y1="41" x2="469.4" y2="41.1"/>
</svg>
